<svg xmlns="http://www.w3.org/2000/svg" width="452" height="320" viewBox="189 141 452 320"><path fill="#cad183" d="M433.342 250.151q.247 5.436-.866 12.972-.249 3.953-.371 5.868-.124 1.915.494 4.819.62 2.903 1.238 4.694.62 1.792 1.67 5.374 1.052 3.583 1.92 7.042 1.484 6.177-4.704 10.13-5.815 3.707-11.757 1.977-7.053-2.224-6.064-11.365.124-1.853.619-3.707.866-2.471.619-6.486-.248-4.014-.805-6.856a284 284 0 0 0-1.361-6.486q-.805-3.645-1.053-5.251 0-.865-.556-4.2-.557-3.336-.495-4.201t.062-6.177q.37-4.572 3.96-7.227t8.416-2.41q4.331.124 6.559 2.719t2.475 8.771m-12.995-15.566q-4.455.494-7.61-1.483-3.157-1.976-3.033-5.93.125-3.212 2.475-5.93 2.352-2.718 7.673-3.336 1.609-.37 3.713-.061 2.105.308 3.96.926 1.857.618 3.218 2.595 1.362 1.976 1.362 4.941 0 3.213-2.414 5.374-2.412 2.163-9.344 2.904M470.432 232.277q1.581 0 2.567-.526.988-.525 3.094-2.234a1364 1364 0 0 0 3.555-2.891q1.448-1.051 3.554-1.248t4.147.394q2.04.59 3.752 2.3 1.711 1.708 2.303 4.468.594 2.76-.197 6.702-4.87 21.29.526 46.52 1.054 4.863-.526 9.265t-5.002 5.914q-3.423 1.511-8.294-1.38-4.344-2.76-5.266-10.25-.395-2.892-1.053-4.205-.658-1.315-1.843-1.315t-2.172 1.643a31 31 0 0 0-1.843 3.614q-.855 1.971-3.555 3.614-2.699 1.643-6.78 1.643-6.713 0-11.19-3.418-4.475-3.416-6.318-8.936-1.844-5.52-2.172-12.418-.33-6.9 1.382-13.996 1.711-8.28 6.056-15.835t9.61-9.528q4.87-1.445 7.24-.985t4.937 1.774q2.567 1.314 3.488 1.314m-5.792 41.264q2.37-.394 3.817-1.774 1.449-1.38 2.634-4.797 2.5-7.227 1.25-14.85-1.25-7.621-4.937-7.885-4.738-.393-6.976 5.257-2.107 4.863-2.37 10.71-.263 5.85 1.514 9.857t5.068 3.482M521.892 317.74q1.68 0 2.729-.56t3.288-2.378q2.24-1.82 3.779-3.08 1.539-1.118 3.778-1.329 2.24-.21 4.408.42t3.988 2.45 2.45 4.757q.63 2.94-.21 7.137-5.179 22.67.559 49.538 1.12 5.178-.56 9.865t-5.317 6.298-8.817-1.47q-4.617-2.938-5.597-10.915-.42-3.078-1.12-4.478t-1.958-1.4-2.31 1.75a33 33 0 0 0-1.958 3.848q-.91 2.1-3.779 3.848-2.869 1.75-7.207 1.75-7.136 0-11.894-3.639t-6.718-9.515q-1.958-5.879-2.308-13.224-.351-7.347 1.47-14.904 1.818-8.816 6.436-16.862 4.618-8.047 10.216-10.146 5.177-1.539 7.696-1.05 2.52.49 5.248 1.89t3.708 1.4m-6.157 43.94q2.52-.42 4.058-1.889 1.54-1.47 2.799-5.107 2.658-7.697 1.33-15.813-1.33-8.116-5.249-8.397-5.037-.42-7.416 5.598-2.239 5.178-2.52 11.405-.28 6.227 1.61 10.495 1.89 4.269 5.388 3.708M366.939 359.239q2.808-3.105 6.43-3.695 3.621-.592 6.503 1.035 2.883 1.625 4.656 5.099 1.774 3.474 1.33 7.612-.59 4.73-2.734 8.352-2.143 3.621-5.247 5.912t-6.208 3.622a24.5 24.5 0 0 1-6.356 1.773q-9.903 1.774-18.55-2.956t-13.377-14.781q-5.175-10.791-6.283-24.537t2.365-25.646q3.473-11.898 11.012-16.776 9.46-5.764 17.812-5.026 8.351.74 14.338 6.652t7.316 14.633q.74 4.287.96 7.095.223 2.808-.59 7.021t-3.03 7.613q-3.4 4.73-7.908 6.577-4.508 1.848-13.673 3.03-3.4.444-4.582 3.03-1.183 2.587-.074 5.47t3.769 4.064q5.322 2.661 12.12-5.173m-19.512-25.867q1.183 2.66 4.213 3.104t5.69-1.626q2.662-2.07 2.957-5.617t-.591-5.765q-.888-2.217-2.513-2.882a7.26 7.26 0 0 0-3.4-.517 6.53 6.53 0 0 0-3.252 1.182q-2.513 1.479-3.547 4.656-1.035 3.178.443 7.465M483.553 372.935c-.303 3.2-2.768 9.424-5.395 11.818-7.264 6.617-11.757 7.376-22.155 10.39-6.767 1.962-25.567-.501-30.685-2.932-2.463-1.17-4.519-2.86-6.204-4.98q-2.527-3.181-2.757-7.022c-.209-3.492 2.301-7.89 5.744-8.582q1.494-.3 4.194-.36c1.8-.04 9.883 1.899 16.093 2.39 9.804.778 24.418-2.553 21.75-17.045-.637-3.458-2.681-6.181-4.366-8.702a421 421 0 0 0-4.366-6.421q-1.839-2.64-2.528-5.521-1.034-4.081.23-9.602 1.264-5.52 4.596-8.522 3.33-2.88 7.065-4.02 3.734-1.14 6.663-.96t7.066 1.02q3.447.72 5.285 3.6t1.838 6.181-.919 6.542q-.69 2.16-2.413 2.7a5.63 5.63 0 0 1-3.446 0 15 15 0 0 0-3.504-.66q-1.781-.12-2.815.48-.92.84-1.206 1.92-.288 1.08.344 2.76.632 1.681 1.724 3.602 1.09 1.92 3.159 5.04 4.25 6.241 6.032 12.303 1.783 6.06.976 14.583M431.925 324.144q-4.136.46-7.065-1.378-2.93-1.839-2.815-5.515.115-2.987 2.298-5.514t7.123-3.102q1.493-.346 3.446-.058t3.677.862q1.722.575 2.987 2.412 1.263 1.839 1.263 4.596 0 2.986-2.24 4.998-2.24 2.01-8.674 2.7"/><path fill="#cad183" d="M442.049 348.133q-.208 1.075.224 2.742.432 1.666.918 2.705t1.286 3.108c2.088 5.405 4.177 9.387-2.34 11.23-3.76 1.063-11.357-1.538-14.995-2.247-2.85-.555-4.273-3.56-3.403-6.98.783-3.074.714-3.328.666-6.577q-.034-2.277-.412-3.906a105 105 0 0 0-.945-3.722q-.57-2.092-.72-3.01.043-.488-.31-2.396-.355-1.908-.255-2.393t.358-3.484q.567-2.563 4.02-3.901 3.454-1.339 7.914-.982 4.005.264 5.944 1.828c3.403 2.748 2.84 13.894 2.05 17.985M410.441 322.006q.115 3.332-1.034 9.536-1.148 6.204-1.263 8.157-.575 5.285-.632 8.96-.057 3.677.517 7.986t1.264 7.295q.688 2.987 2.412 9.88.575 2.412.92 3.677 1.377 5.744-.345 10.454-1.724 4.71-5.687 6.09-3.964 1.377-9.593-1.264-7.353-4.137-4.596-19.416.69-3.217.46-8.732t-.747-9.363a542 542 0 0 0-1.264-8.789q-.747-4.94-.861-7.123-.116-1.264-.632-5.744-.517-4.48-.46-5.687.058-1.206.058-8.33.345-6.318 4.136-9.937 3.79-3.62 8.501-3.274 4.137.23 6.376 3.79 2.24 3.563 2.47 11.834M299.053 281.937q-.51 4.856-3.968 9.264-3.456 4.41-8.576 7.092-9.856 5.239-18.048 1.661-3.969-1.788-6.657-5.047t-2.944-7.22q-.256-3.96 3.712-7.666.897-.896 2.432-1.215 1.536-.319 4.48-.32h3.584q10.241-.766 5.377-13.288-2.049-4.984-4.737-8.881a251 251 0 0 0-4.672-6.58q-1.984-2.685-2.752-5.623-1.024-4.216.256-9.84 1.28-5.622 4.864-8.688 3.585-2.94 7.617-4.09t7.168-1.022q3.136.129 7.616 1.15 3.584.64 5.568 3.578 1.984 2.94 1.984 6.325.001 3.387-1.024 6.709-.768 2.172-2.56 2.747t-3.648 0a16.4 16.4 0 0 0-3.776-.703q-1.92-.127-2.944.511-1.152.895-1.408 1.981t.384 2.811 1.856 3.706 3.392 5.175q4.48 6.39 6.4 12.587t1.024 14.886m54.58-9.007q-1.081 4.317-2.365 7.555-1.284 3.239-3.785 6.948-2.5 3.71-5.676 6.14-3.177 2.427-8.312 3.98-5.135 1.55-11.623 1.55-3.785 0-6.825-.809-3.041-.81-5.136-1.889-2.094-1.08-3.514-3.17-1.42-2.091-2.297-3.845-.88-1.755-1.15-4.79t-.27-5.06q0-2.022.406-5.666.405-3.642.743-5.531l1.014-5.667q.405-2.293.54-3.372.405-1.89.608-7.016.204-5.127.744-9.31.54-4.182 1.824-8.904t4.258-8.027 7.433-4.52q8.92-2.293 17.637 2.091 8.719 4.385 12.232 12.345 3.243 7.15 4.392 18.214t-.878 18.753m-24.057-33.19q-2.028 0-3.582 1.215-1.554 1.214-2.635 3.845t-1.69 4.857-1.554 6.274q-.135.675-.405 1.888-.676 2.565-.946 3.98-.27 1.417-.676 3.846-.405 2.428-.406 3.777 0 1.35.135 2.833.135 1.485.744 2.227.608.741 1.69.741 4.865.405 8.784-5.261t5.812-12.952q.405-1.754.608-4.317t0-5.667q-.202-3.103-1.69-5.262-1.486-2.158-4.19-2.023M392.713 250.644q-5.903-6.789-10.65-4.483-5.647 2.817-6.16 15.244-.385 9.863 3.464 15.371 3.594 5.253 7.315 0a1.6 1.6 0 0 0 .385-.64q2.439-3.715 5.197-5.252 2.76-1.538 5.133-.897a13.6 13.6 0 0 1 4.299 1.986q1.925 1.344 2.951 3.266 1.925 3.075 2.182 7.11.255 4.035-1.54 8.134-1.797 4.1-5.775 6.661a33.5 33.5 0 0 1-9.431 3.971q-5.07 1.281-10.587.705-5.517-.577-9.88-3.395-5.134-3.459-7.893-10.76-2.759-7.303-2.759-15.82 0-8.519 2.374-17.422t6.416-15.884 10.266-10.888q6.225-3.907 13.282-2.755 2.823.513 5.518 1.666 2.694 1.152 5.39 3.074 2.694 1.922 4.555 5.124t2.374 7.173q.384 3.716-1.156 6.726-1.539 3.01-4.041 4.42-2.502 1.409-5.647.896-3.143-.513-5.582-3.33M519.964 230.245q.118 2.447-1.07 7.001-1.19 4.555-1.308 5.988-.594 3.88-.654 6.58t.535 5.862 1.308 5.356 2.496 7.254q.595 1.77.952 2.699 1.426 4.218-.357 7.676-1.784 3.458-5.885 4.47-4.102 1.013-9.927-.928-7.61-3.037-4.755-14.254.712-2.362.475-6.411-.238-4.049-.773-6.874a294 294 0 0 0-1.308-6.453q-.772-3.627-.892-5.23-.119-.927-.653-4.217-.535-3.29-.476-4.175.06-.886.06-6.115.356-4.64 4.28-7.296 3.923-2.658 8.797-2.404 4.28.168 6.599 2.783 2.317 2.615 2.556 8.688M546.815 229.927q.12 2.445-1.07 7-1.189 4.556-1.308 5.99-.594 3.88-.654 6.579-.059 2.698.535 5.862.596 3.163 1.308 5.356.714 2.193 2.497 7.254.594 1.77.951 2.699 1.426 4.218-.357 7.676t-5.884 4.47-9.928-.928q-7.609-3.037-4.755-14.254.713-2.363.475-6.411-.237-4.049-.772-6.874a293 293 0 0 0-1.308-6.453q-.774-3.627-.892-5.23-.12-.927-.654-4.217t-.476-4.175q.06-.886.06-6.115.356-4.64 4.28-7.297 3.923-2.656 8.798-2.403 4.28.168 6.598 2.783t2.556 8.688"/><path fill="#cad183" d="M549.32 232.146c-.04-2.056.356-3.897 1.07-5.519q1.07-2.432 2.853-3.738 1.783-1.305 3.685-1.958 1.903-.652 3.626-.297c1.15.237 2.02.77 2.676 1.543 1.088 1.284 1.803 3.323 2.08 6.171q.416 4.273.357 7.774-.06 3.501 1.664 5.993c1.149 1.661 3.034 2.356 5.647 2.018 1.667-.216 2.953-1.504 3.864-3.798q1.366-3.442 1.308-6.705c-.04-2.176.074-3.826-.06-4.926-.263-2.157.06-4.095 1.367-5.874q1.962-2.67 4.875-3.74 2.913-1.066 6.063-.118c2.1.633 3.558 1.992 4.459 4.036 1.714 3.89 3.018 8.827 3.923 14.835 1.156 7.679 2.719 24.987-1.755 38.085-11.289 33.046-47.379 25.794-59.862 27.97-.366.064-18.212 3.676-20.48 4.057-5.936.995-10.58-.554-13.91-4.51q-4.992-5.934-1.664-12.343 3.33-6.41 14.267-6.172c13.147.289 69.823 9.593 69.343-15.826q-.06-3.146-1.248-3.857-1.545-.831-2.794-.297-1.248.534-3.388 1.246-2.14.713-4.22 1.424-2.081.713-5.35.356-3.27-.354-6.718-2.136c-4.122-2.133-8.476-8.31-10.378-13.373s-1.182-14.15-1.3-20.321"/><path fill="#afc223" fill-rule="evenodd" d="M208.987 242.457c-1.166-1.333-4.833-9-7-19.5s-2.833-23.833 1.167-34.916c4-11.084 12.667-19.917 22.167-26 9.5-6.084 19.833-9.417 31.417-10.334 11.583-.917 24.416.583 31.916 3.583s9.667 7.5 10.083 11.167-.916 6.5-3.75 8.584-7.166 3.416-12.333 2.333c-5.167-1.084-11.166-4.584-17.416-6.833s-12.75-3.25-18.917-3-12 1.75-17.5 4.583-10.667 7-14.5 11.833-6.334 10.333-7.75 16.333-1.75 12.5-1.417 18.167 1.333 10.5 2.5 15.417 2.5 9.916 1.333 8.583M621.534 358.892c1.167 1.333 4.833 9 7 19.5s2.833 23.833-1.167 34.916c-4 11.084-12.667 19.917-22.167 26-9.5 6.084-19.833 9.417-31.416 10.334s-24.417-.583-31.917-3.584c-7.5-3-9.666-7.5-10.083-11.166s.916-6.5 3.75-8.584 7.166-3.416 12.333-2.333c5.167 1.084 11.167 4.584 17.417 6.833s12.75 3.25 18.916 3 12-1.75 17.5-4.583 10.667-7 14.5-11.833 6.334-10.333 7.75-16.334 1.75-12.5 1.417-18.166-1.333-10.5-2.5-15.417-2.5-9.916-1.333-8.583"/><path fill="#9c5658" fill-rule="evenodd" d="M221.072 226.625c-1.75-.834-3.417-7.834-3.417-14.167s1.667-12 4.833-16.417 7.834-7.583 13-8.833 10.834-.584 15.417 1.416 8.083 5.334 8.5 8.584-2.25 6.417-6.25 8.167-9.333 2.083-13.417 1.666-6.916-1.583-8.916-.083-3.167 5.667-4.667 10.417-3.333 10.083-5.083 9.25M611.969 367.31c1.75.833 3.416 7.833 3.416 14.166s-1.666 12-4.833 16.417-7.834 7.583-13 8.833-10.833.584-15.417-1.416-8.083-5.334-8.5-8.584 2.25-6.416 6.25-8.167 9.333-2.083 13.417-1.666 6.917 1.583 8.916.083 3.167-5.666 4.667-10.417 3.333-10.083 5.083-9.25"/></svg>